<svg width="17" height="17" viewBox="0 0 17 17" fill="none" xmlns="http://www.w3.org/2000/svg">
<g opacity="0.4">
<path d="M15.0531 6.81384C14.8007 6.55 14.5395 6.27812 14.4411 6.03906C14.35 5.82009 14.3446 5.45714 14.3393 5.10558C14.3292 4.45201 14.3185 3.71138 13.8036 3.19643C13.2886 2.68147 12.548 2.67076 11.8944 2.66071C11.5429 2.65536 11.1799 2.65 10.9609 2.55893C10.7225 2.46049 10.45 2.19933 10.1862 1.94687C9.72411 1.5029 9.19911 1 8.5 1C7.80089 1 7.27656 1.5029 6.81384 1.94687C6.55 2.19933 6.27812 2.46049 6.03906 2.55893C5.82143 2.65 5.45714 2.65536 5.10558 2.66071C4.45201 2.67076 3.71138 2.68147 3.19643 3.19643C2.68147 3.71138 2.67411 4.45201 2.66071 5.10558C2.65536 5.45714 2.65 5.82009 2.55893 6.03906C2.46049 6.27746 2.19933 6.55 1.94687 6.81384C1.5029 7.27589 1 7.80089 1 8.5C1 9.19911 1.5029 9.72344 1.94687 10.1862C2.19933 10.45 2.46049 10.7219 2.55893 10.9609C2.65 11.1799 2.65536 11.5429 2.66071 11.8944C2.67076 12.548 2.68147 13.2886 3.19643 13.8036C3.71138 14.3185 4.45201 14.3292 5.10558 14.3393C5.45714 14.3446 5.82009 14.35 6.03906 14.4411C6.27746 14.5395 6.55 14.8007 6.81384 15.0531C7.27589 15.4971 7.80089 16 8.5 16C9.19911 16 9.72344 15.4971 10.1862 15.0531C10.45 14.8007 10.7219 14.5395 10.9609 14.4411C11.1799 14.35 11.5429 14.3446 11.8944 14.3393C12.548 14.3292 13.2886 14.3185 13.8036 13.8036C14.3185 13.2886 14.3292 12.548 14.3393 11.8944C14.3446 11.5429 14.35 11.1799 14.4411 10.9609C14.5395 10.7225 14.8007 10.45 15.0531 10.1862C15.4971 9.72411 16 9.19911 16 8.5C16 7.80089 15.4971 7.27656 15.0531 6.81384ZM11.5576 7.27187L7.80759 11.0219C7.75784 11.0717 7.69875 11.1112 7.63372 11.1382C7.56868 11.1651 7.49897 11.179 7.42857 11.179C7.35817 11.179 7.28846 11.1651 7.22342 11.1382C7.15839 11.1112 7.09931 11.0717 7.04955 11.0219L5.44241 9.41473C5.39264 9.36496 5.35315 9.30587 5.32622 9.24084C5.29928 9.17581 5.28542 9.1061 5.28542 9.03571C5.28542 8.96532 5.29928 8.89562 5.32622 8.83059C5.35315 8.76556 5.39264 8.70647 5.44241 8.6567C5.54293 8.55617 5.67927 8.4997 5.82143 8.4997C5.89182 8.4997 5.96152 8.51357 6.02655 8.5405C6.09158 8.56744 6.15067 8.60692 6.20045 8.6567L7.42857 9.88549L10.7996 6.51384C10.8493 6.46407 10.9084 6.42458 10.9734 6.39765C11.0385 6.37071 11.1082 6.35684 11.1786 6.35684C11.249 6.35684 11.3187 6.37071 11.3837 6.39765C11.4487 6.42458 11.5078 6.46407 11.5576 6.51384C11.6074 6.56361 11.6468 6.6227 11.6738 6.68773C11.7007 6.75277 11.7146 6.82247 11.7146 6.89286C11.7146 6.96325 11.7007 7.03295 11.6738 7.09798C11.6468 7.16301 11.6074 7.2221 11.5576 7.27187Z" fill="#050505"/>
</g>
</svg>
