<svg width="30" height="30" viewBox="0 0 30 30" fill="none" xmlns="http://www.w3.org/2000/svg">
<path fill-rule="evenodd" clip-rule="evenodd" d="M15 30C23.2843 30 30 23.2843 30 15C30 6.71573 23.2843 0 15 0C6.71573 0 0 6.71573 0 15C0 23.2843 6.71573 30 15 30ZM11.8199 27.294C14.3909 27.7642 17.0463 24.9234 18.2929 20.7616C16.264 21.1396 14.2649 21.1876 12.3996 21.0091C12.6507 21.6236 12.9416 22.2335 13.2751 22.8352C13.3808 23.0116 13.4414 23.2197 13.4414 23.4427C13.4414 24.0791 12.9441 24.595 12.331 24.595C11.8783 24.595 11.4888 24.3133 11.3159 23.91C10.7375 22.8313 10.2833 21.7334 9.93678 20.6326C6.30863 19.8659 3.48698 18.3032 2.44785 16.9144C3.21155 21.9639 6.9496 26.0378 11.8199 27.294ZM16.9141 27.5522C21.9703 26.7876 26.0483 23.0408 27.2988 18.1613C27.7211 15.6088 24.896 12.9833 20.7682 11.7438C21.1476 13.8012 21.1881 15.8274 20.9978 17.7137C21.602 17.4655 22.2016 17.1787 22.7933 16.8508C22.9697 16.7451 23.1778 16.6845 23.4008 16.6845C24.0372 16.6845 24.5531 17.1817 24.5531 17.7948C24.5531 18.2475 24.2714 18.6371 23.8681 18.8099C22.7946 19.3856 21.702 19.8382 20.6066 20.1841C19.8309 23.754 18.2875 26.5246 16.9141 27.5522ZM18.8132 18.4449C16.3611 19.0876 13.9051 19.159 11.6748 18.8313C11.0222 16.3271 10.9648 13.8197 11.3193 11.5534C13.7747 10.9311 16.2297 10.8783 18.454 11.2223C19.0995 13.7065 19.1596 16.1936 18.8132 18.4449ZM17.728 9.03744C15.8681 8.84826 13.8716 8.88333 11.843 9.24636C13.1082 5.05552 15.8027 2.21435 18.3939 2.76536L18.3843 2.76055C23.1704 4.081 26.8231 8.13345 27.5595 13.1348C26.5428 11.7595 23.7713 10.2099 20.1955 9.43024C19.8482 8.32248 19.3918 7.21744 18.8098 6.13189C18.6369 5.7286 18.2474 5.44693 17.7947 5.44693C17.1816 5.44693 16.6843 5.96281 16.6843 6.59916C16.6843 6.82224 16.7449 7.03027 16.8506 7.2067C17.1849 7.80989 17.4764 8.42138 17.728 9.03744ZM9.36336 18.3299C5.13328 17.0993 2.23066 14.4163 2.70613 11.8195C3.9814 6.87582 8.15997 3.09884 13.3152 2.41528C11.9232 3.37334 10.3296 6.17091 9.53059 9.80541C8.38781 10.1566 7.24735 10.6232 6.12763 11.2236C5.72435 11.3965 5.44267 11.786 5.44267 12.2387C5.44267 12.8518 5.95856 13.3491 6.59491 13.3491C6.81799 13.3491 7.02601 13.2885 7.20245 13.1828C7.83866 12.8302 8.4841 12.5252 9.1344 12.2644C8.93574 14.1785 8.97425 16.2384 9.36336 18.3299Z" fill="#FEFEFE"/>
</svg>
