<svg width="452" height="100" viewBox="0 0 452 100" fill="none" xmlns="http://www.w3.org/2000/svg">
<g clip-path="url(#clip0_1713_1109)">
<path d="M221.769 0H17.8128C7.97506 0 0 8.03076 0 17.9372V82.0628C0 91.9691 7.97506 100 17.8128 100H221.769C231.607 100 239.582 91.9691 239.582 82.0628V17.9372C239.582 8.03076 231.607 0 221.769 0Z" fill="#5FE0D8"/>
<path d="M120.167 24.1704C129.313 24.1704 137.805 30.3103 137.805 41.3475C137.805 52.3847 129.313 58.5247 120.167 58.5247H112.037V75.3363H101.729V24.1704H120.167ZM120.167 49.1686C124.957 49.1686 128.224 46.2448 128.224 41.3475C128.224 36.4502 124.957 33.5264 120.167 33.5264H112.037V49.1686H120.167ZM172.582 65.9803H178.752V75.3363H165.613L157.847 57.209H150.443V75.3363H140.135V24.1704H161.113C170.985 24.1704 177.953 30.7489 177.953 40.6897C177.953 48.0722 174.033 53.6273 168.009 55.9664L172.582 65.9803ZM150.443 33.5264V47.926H160.387C164.525 47.926 168.372 46.1717 168.372 40.6897C168.372 35.1345 164.525 33.5264 160.387 33.5264H150.443ZM204.539 76.0673C189.876 76.0673 178.843 64.2991 178.843 49.7534C178.843 35.2076 189.876 23.4395 204.539 23.4395C219.056 23.4395 230.089 35.2076 230.089 49.7534C230.089 64.2991 219.056 76.0673 204.539 76.0673ZM204.539 65.761C213.394 65.761 220.145 58.5247 220.145 49.7534C220.145 40.9821 213.394 33.7457 204.539 33.7457C195.611 33.7457 188.787 40.9821 188.787 49.7534C188.787 58.5247 195.611 65.761 204.539 65.761Z" fill="#FEFEFE"/>
<path d="M59.0788 57.4755C58.2586 57.3155 57.4788 57.8769 57.3385 58.6989C55.9585 66.6773 52.7575 72.2509 49.577 72.2509C48.897 72.2509 48.2166 71.9903 47.5165 71.489C46.8566 70.9877 45.9161 71.128 45.416 71.8096C44.9159 72.4711 45.0762 73.4137 45.7362 73.9146C46.9563 74.8168 48.2366 75.2778 49.577 75.2778C54.4582 75.2778 58.5787 69.1235 60.2794 59.2199C60.4193 58.398 59.8791 57.6159 59.0588 57.4755H59.0788Z" fill="#FEFEFE"/>
<path d="M40.1156 41.9174C40.1156 41.9174 40.2957 41.9374 40.3757 41.9374C41.0958 41.9374 41.716 41.4162 41.856 40.6945C43.2363 32.7156 46.4371 27.1424 49.6176 27.1424C50.2976 27.1424 50.978 27.403 51.6781 27.9042C52.338 28.4054 53.2785 28.245 53.7786 27.5835C54.2787 26.9219 54.1184 25.9797 53.4584 25.4785C52.2383 24.5764 50.958 24.1152 49.6176 24.1152C44.7364 24.1152 40.6157 30.2698 38.9154 40.1733C38.7753 40.9952 39.3155 41.7771 40.1357 41.9174H40.1156Z" fill="#FEFEFE"/>
<path d="M63.1788 45.1478C62.5389 44.6065 61.5984 44.7068 61.0582 45.3483C60.5185 45.99 60.6182 46.9321 61.2586 47.4734C67.4597 52.6658 70.6802 58.2187 69.1003 60.9855C68.76 61.5667 68.1998 62.0277 67.4196 62.3886C66.6594 62.7295 66.3197 63.6115 66.6394 64.3734C66.8794 64.9348 67.4397 65.2756 68.0199 65.2756C68.2199 65.2756 68.4198 65.2353 68.6202 65.155C70.0002 64.5537 71.0405 63.6514 71.7005 62.5088C74.1413 58.2591 70.8806 51.6232 63.1788 45.1877V45.1478Z" fill="#FEFEFE"/>
<path d="M36.0139 54.249C36.294 54.4893 36.6341 54.5898 36.9741 54.5898C37.3942 54.5898 37.8343 54.4091 38.1344 54.0485C38.6745 53.4068 38.5745 52.4647 37.9343 51.9234C31.7331 46.731 28.5124 41.1778 30.0927 38.4113C30.4328 37.8299 30.9929 37.3688 31.773 37.008C32.5332 36.6672 32.8733 35.7851 32.5532 35.0233C32.2132 34.2615 31.3329 33.9207 30.5728 34.2414C29.1925 34.8428 28.1523 35.745 27.4921 36.8877C25.0517 41.1378 28.3123 47.7736 36.0139 54.2086V54.249Z" fill="#FEFEFE"/>
<path d="M52.4569 35.645C51.6767 35.9257 51.2768 36.7877 51.5569 37.5695C51.837 38.3514 52.6969 38.7523 53.4771 38.4717C61.0587 35.6851 67.4802 35.665 69.0606 38.4316C69.4004 39.0129 69.5207 39.7347 69.4205 40.5967C69.3207 41.4186 69.9206 42.1604 70.7408 42.2606C70.8009 42.2606 70.8606 42.2606 70.9007 42.2606C71.6609 42.2606 72.3012 41.6993 72.3809 40.9175C72.5413 39.4139 72.3012 38.0707 71.6408 36.908C69.2005 32.6579 61.8389 32.1768 52.4168 35.645H52.4569Z" fill="#FEFEFE"/>
<path d="M47.6159 61.824C47.3358 61.0424 46.4755 60.6415 45.6953 60.9222C38.1139 63.7087 31.6925 63.7285 30.1122 60.9621C29.7721 60.3809 29.6521 59.659 29.7521 58.7971C29.8521 57.9751 29.252 57.2334 28.4318 57.1329C27.6117 57.0329 26.8715 57.6343 26.7715 58.4563C26.6115 59.9599 26.8515 61.3029 27.5116 62.4657C28.8719 64.8312 31.7525 66.0343 35.6733 66.0343C38.794 66.0343 42.5548 65.2724 46.7355 63.7486C47.5157 63.4679 47.9161 62.606 47.636 61.824H47.6159Z" fill="#FEFEFE"/>
<path d="M65.6001 12.1074H33.5934C21.7309 12.1074 12.0889 21.7703 12.0889 33.6585V65.7343C12.0889 77.6227 21.7309 87.2855 33.5934 87.2855H65.6001C77.4625 87.2855 87.1046 77.6227 87.1046 65.7343V33.6585C87.1046 21.7703 77.4625 12.1074 65.6001 12.1074ZM84.104 65.7343C84.104 75.9585 75.8024 84.2783 65.6001 84.2783H33.5934C23.3912 84.2783 15.0895 75.9585 15.0895 65.7343V33.6585C15.0895 23.4342 23.3912 15.1146 33.5934 15.1146H65.6001C75.8024 15.1146 84.104 23.4342 84.104 33.6585V65.7343Z" fill="#FEFEFE"/>
<path d="M269.074 76.0673C259.129 76.0673 251.943 70.5852 249.185 62.9103L258.549 59.8404C260.436 64.226 263.775 66.3457 269.437 66.3457C275.316 66.3457 278.002 63.3489 278.002 60.4251C278.002 56.1856 274.228 55.5278 266.388 53.7004C258.839 51.9462 250.855 48.3646 250.855 39.1547C250.855 29.5063 259.638 23.4395 268.784 23.4395C278.147 23.4395 284.68 28.483 287.148 36.0117L277.857 39.0816C276.768 35.5 273.502 33.161 269.074 33.161C263.92 33.161 261.162 36.2309 261.162 38.9354C261.162 41.9323 263.63 43.3942 271.469 45.3677C279.962 47.4874 288.237 49.7534 288.237 60.2789C288.237 70.0735 279.817 76.0673 269.074 76.0673ZM291.053 75.3363V23.9511H324.588V33.3803H301.361V44.856H321.177V53.9197H301.361V75.3363H291.053ZM328.112 75.3363V24.1704H361.648V33.8919H338.42V44.9291H358.236V53.9197H338.42V65.6148H361.648V75.3363H328.112ZM397.334 65.9803H403.504V75.3363H390.366L382.599 57.209H375.195V75.3363H364.888V24.1704H385.865C395.737 24.1704 402.706 30.7489 402.706 40.6897C402.706 48.0722 398.786 53.6273 392.761 55.9664L397.334 65.9803ZM375.195 33.5264V47.926H385.14C389.277 47.926 393.124 46.1717 393.124 40.6897C393.124 35.1345 389.277 33.5264 385.14 33.5264H375.195ZM440.233 75.3363L436.459 67.1498H417.441L413.666 75.3363H402.197L426.877 23.4395L451.63 75.3363H440.233ZM421.288 58.6708H432.539L426.877 46.5372L421.288 58.6708Z" fill="#050505"/>
</g>
<defs>
<clipPath id="clip0_1713_1109">
<rect width="452" height="100" fill="white"/>
</clipPath>
</defs>
</svg>
