<svg width="20" height="20" viewBox="0 0 20 20" fill="none" xmlns="http://www.w3.org/2000/svg">
<path fill-rule="evenodd" clip-rule="evenodd" d="M10 20C15.5228 20 20 15.5228 20 10C20 4.47715 15.5228 0 10 0C4.47715 0 0 4.47715 0 10C0 15.5228 4.47715 20 10 20ZM7.87995 18.196C9.59394 18.5095 11.3642 16.6156 12.1953 13.8411C10.8427 14.093 9.50991 14.125 8.2664 14.0061C8.43383 14.4157 8.62776 14.8224 8.85005 15.2235C8.92054 15.3411 8.96091 15.4798 8.96091 15.6285C8.96091 16.0527 8.62942 16.3966 8.22068 16.3966C7.91888 16.3966 7.65919 16.2089 7.54396 15.94C7.15835 15.2209 6.85551 14.4889 6.62452 13.7551C4.20575 13.2439 2.32465 12.2021 1.6319 11.2762C2.14104 14.6426 4.63307 17.3585 7.87995 18.196ZM11.2761 18.3681C14.6469 17.8584 17.3655 15.3606 18.1992 12.1075C18.4807 10.4059 16.5973 8.65552 13.8455 7.82918C14.0984 9.20079 14.1254 10.5516 13.9985 11.8091C14.4013 11.6436 14.8011 11.4525 15.1955 11.2339C15.3132 11.1634 15.4518 11.123 15.6006 11.123C16.0248 11.123 16.3687 11.4545 16.3687 11.8632C16.3687 12.165 16.1809 12.4247 15.9121 12.5399C15.1964 12.9237 14.468 13.2255 13.7377 13.4561C13.2206 15.836 12.1917 17.6831 11.2761 18.3681ZM12.5421 12.2966C10.9074 12.7251 9.2701 12.7727 7.78319 12.5542C7.34813 10.8848 7.30986 9.21316 7.5462 7.70229C9.18316 7.28738 10.8198 7.25219 12.3026 7.48152C12.733 9.13769 12.7731 10.7957 12.5421 12.2966ZM11.8187 6.02496C10.5787 5.89884 9.24774 5.92222 7.89535 6.16424C8.73881 3.37035 10.5351 1.47624 12.2626 1.84358L12.2562 1.84036C15.4469 2.72067 17.8821 5.4223 18.373 8.75652C17.6952 7.83968 15.8475 6.8066 13.4637 6.28683C13.2321 5.54832 12.9279 4.81163 12.5398 4.08792C12.4246 3.81907 12.1649 3.63128 11.8631 3.63128C11.4544 3.63128 11.1229 3.97521 11.1229 4.39944C11.1229 4.54816 11.1633 4.68684 11.2338 4.80447C11.4566 5.20659 11.651 5.61426 11.8187 6.02496ZM6.24224 12.22C3.42218 11.3996 1.48711 9.61089 1.80409 7.87969C2.65427 4.58388 5.43998 2.0659 8.87678 1.61019C7.94881 2.24889 6.88642 4.11394 6.35373 6.53694C5.59187 6.77105 4.83157 7.08215 4.08509 7.48242C3.81623 7.59765 3.62845 7.85734 3.62845 8.15914C3.62845 8.56788 3.97237 8.89937 4.3966 8.89937C4.54533 8.89937 4.68401 8.85899 4.80163 8.78851C5.22577 8.55346 5.65607 8.35011 6.0896 8.17629C5.95716 9.45234 5.98283 10.8256 6.24224 12.22Z" fill="#5FE0D8"/>
</svg>
