<svg width="80" height="22" viewBox="0 0 80 22" fill="none" xmlns="http://www.w3.org/2000/svg">
<path d="M7.96272 21.4271C4.04654 21.4271 1.21661 19.2343 0.130371 16.1643L3.81786 14.9363C4.56108 16.6906 5.876 17.5385 8.10565 17.5385C10.421 17.5385 11.4787 16.3397 11.4787 15.1702C11.4787 13.4745 9.99227 13.2113 6.90507 12.4804C3.9322 11.7787 0.787825 10.346 0.787825 6.66208C0.787825 2.8027 4.24663 0.375977 7.84837 0.375977C11.5359 0.375977 14.1085 2.39338 15.0804 5.40486L11.4215 6.63284C10.9927 5.20019 9.70642 4.26459 7.96272 4.26459C5.93317 4.26459 4.84693 5.49257 4.84693 6.57436C4.84693 7.77311 5.81882 8.35786 8.90603 9.14728C12.2505 9.99517 15.5092 10.9015 15.5092 15.1118C15.5092 19.0296 12.1933 21.4271 7.96272 21.4271ZM16.6182 21.1347V0.58064H29.8246V4.3523H20.6774V8.94261H28.4811V12.5681H20.6774V21.1347H16.6182ZM31.2123 21.1347V0.668353H44.4187V4.55696H35.2714V8.97185H43.0752V12.5681H35.2714V17.2461H44.4187V21.1347H31.2123ZM58.4723 17.3923H60.902V21.1347H55.7281L52.6695 13.8838H49.7538V21.1347H45.6947V0.668353H53.9558C57.8434 0.668353 60.5876 3.29974 60.5876 7.27607C60.5876 10.2291 59.044 12.4511 56.6714 13.3867L58.4723 17.3923ZM49.7538 4.41077V10.1706H53.67C55.2993 10.1706 56.8143 9.46889 56.8143 7.27607C56.8143 5.054 55.2993 4.41077 53.67 4.41077H49.7538ZM75.3661 21.1347L73.8797 17.8601H66.3904L64.904 21.1347H60.3875L70.1065 0.375977L79.8544 21.1347H75.3661ZM67.9054 14.4685H72.3361L70.1065 9.61508L67.9054 14.4685Z" fill="#050505"/>
</svg>
