<svg width="60" height="60" viewBox="0 0 60 60" fill="none" xmlns="http://www.w3.org/2000/svg">
<rect width="60" height="60" rx="30" fill="#F5F6F7"/>
<path d="M24.75 23C23.7554 23 22.8016 23.3687 22.0983 24.0251C21.3951 24.6815 21 25.5717 21 26.5V33.5C21 34.4283 21.3951 35.3185 22.0983 35.9749C22.8016 36.6313 23.7554 37 24.75 37H35.25C36.2446 37 37.1984 36.6313 37.9016 35.9749C38.6049 35.3185 39 34.4283 39 33.5V26.5C39 25.5717 38.6049 24.6815 37.9016 24.0251C37.1984 23.3687 36.2446 23 35.25 23H24.75ZM28.5 24.4H35.25C35.8467 24.4 36.419 24.6212 36.841 25.0151C37.2629 25.4089 37.5 25.943 37.5 26.5V33.5C37.5 34.057 37.2629 34.5911 36.841 34.9849C36.419 35.3788 35.8467 35.6 35.25 35.6H28.5V24.4Z" fill="#050505"/>
</svg>
