<svg width="30" height="30" viewBox="0 0 30 30" fill="none" xmlns="http://www.w3.org/2000/svg">
<path fill-rule="evenodd" clip-rule="evenodd" d="M18.0875 18.2637C18.9807 17.9461 19.8236 17.4907 20.5853 16.9109C21.7561 16.0198 22.7019 14.8604 23.3456 13.5276C23.9892 12.1947 24.3122 10.7263 24.2882 9.24259C24.2641 7.75888 23.8938 6.30201 23.2074 4.99126C22.521 3.68053 21.538 2.55319 20.3391 1.70156C19.1401 0.849921 17.7592 0.298197 16.3094 0.0915558C14.8596 -0.115086 13.3821 0.0292299 11.9979 0.512687C10.9378 0.882952 9.95548 1.44408 9.097 2.16632C8.65917 2.53466 8.67447 3.19446 9.0836 3.59445C9.50058 4.00212 10.1666 3.98294 10.626 3.62382C11.2427 3.14182 11.9344 2.76305 12.675 2.50436C13.7489 2.12929 14.8952 2.01732 16.02 2.17764C17.1448 2.33796 18.2161 2.76599 19.1463 3.4267C20.0764 4.08741 20.839 4.96202 21.3715 5.97891C21.904 6.99579 22.1914 8.12606 22.21 9.27715C22.2287 10.4282 21.9781 11.5675 21.4787 12.6015C21.3437 12.8811 21.1916 13.1508 21.0235 13.4093C20.5578 13.0305 20.1069 12.7134 19.6337 12.4416C19.1041 12.1374 18.5668 11.9014 17.978 11.6958C17.6427 10.817 17.172 9.99317 16.5801 9.25455C15.6716 8.12092 14.5034 7.22026 13.1709 6.62632C11.8385 6.03238 10.3798 5.76208 8.91419 5.83751C7.44861 5.91293 6.01784 6.33197 4.73905 7.06029C3.46026 7.78861 2.36977 8.8055 1.55688 10.0277C0.74399 11.25 0.231806 12.6428 0.062261 14.0922C-0.107284 15.5415 0.070631 17.0062 0.581439 18.3664C0.970603 19.4026 1.54456 20.3557 2.27328 21.1816C2.65249 21.6113 3.31337 21.5764 3.70049 21.1538C4.09177 20.7266 4.05296 20.0665 3.68518 19.6189C3.1957 19.0232 2.80604 18.3497 2.53333 17.6236C2.13704 16.5684 1.99901 15.4321 2.13054 14.3076C2.26208 13.1832 2.65944 12.1026 3.29009 11.1544C3.92076 10.2062 4.76677 9.41722 5.75886 8.85217C6.75098 8.28713 7.86098 7.96203 8.998 7.90353C10.135 7.84501 11.2667 8.05472 12.3004 8.51551C12.6144 8.65546 12.9167 8.81737 13.2051 8.99962C12.8873 9.41051 12.6152 9.81353 12.3776 10.2342C12.0734 10.7725 11.8372 11.3193 11.631 11.9192C10.7591 12.2326 9.93628 12.681 9.19238 13.2513C8.02497 14.1463 7.08604 15.3152 6.45481 16.6596C5.82361 18.004 5.51861 19.4843 5.56559 20.9757C5.61254 22.4672 6.01009 23.9259 6.7247 25.229C7.43928 26.532 8.44996 27.6411 9.67143 28.4626C10.8929 29.2841 12.2894 29.7942 13.7431 29.9495C15.1967 30.1048 16.6649 29.9008 18.0238 29.3548C19.0717 28.934 20.0309 28.3191 20.8546 27.5442C21.2634 27.1596 21.2154 26.5146 20.796 26.1416C20.364 25.7574 19.7047 25.81 19.2688 26.1899C18.6763 26.7064 18.0021 27.1206 17.2725 27.4137C16.2183 27.8372 15.0792 27.9954 13.9515 27.8749C12.8237 27.7544 11.7403 27.3588 10.7926 26.7214C9.845 26.0841 9.06092 25.2236 8.50652 24.2127C7.95213 23.2018 7.6437 22.0701 7.60726 20.913C7.57083 19.7559 7.80743 18.6075 8.29713 17.5645C8.45092 17.2369 8.62825 16.9228 8.82721 16.6245C9.32224 17.0375 9.79834 17.3795 10.2998 17.6706C10.8393 17.9837 11.3873 18.2257 11.99 18.4371C12.3507 19.3311 12.8502 20.1657 13.4729 20.9095C14.4152 22.0349 15.6128 22.9203 16.9677 23.4932C18.3227 24.0662 19.7965 24.3103 21.2684 24.2058C22.7403 24.1013 24.1684 23.651 25.436 22.8919C26.7036 22.1327 27.7745 21.0862 28.5611 19.8381C29.3478 18.59 29.8274 17.1758 29.9615 15.7111C30.0953 14.2465 29.8794 12.7732 29.3312 11.4118C28.9134 10.3738 28.3115 9.42342 27.557 8.60448C27.166 8.18011 26.5014 8.22992 26.1219 8.6646C25.7401 9.10192 25.7935 9.762 26.1722 10.2021C26.6823 10.7949 27.0933 11.4689 27.3871 12.1986C27.8123 13.2548 27.9798 14.3978 27.876 15.5341C27.7721 16.6704 27.3999 17.7676 26.7896 18.7359C26.1794 19.7042 25.3486 20.516 24.3652 21.105C23.3818 21.694 22.2737 22.0433 21.1318 22.1244C19.9899 22.2055 18.8465 22.016 17.7953 21.5715C17.3864 21.3986 16.9959 21.189 16.6283 20.946C16.8811 20.6161 17.1046 20.288 17.3053 19.9476C17.6217 19.4111 17.8692 18.8648 18.0875 18.2637ZM13.4927 13.524L13.5011 13.575C12.3831 13.7645 11.3267 14.2259 10.421 14.9202C10.4039 14.9333 10.3869 14.9465 10.3699 14.9598C10.7435 15.2638 11.0812 15.4994 11.4186 15.6952C12.0156 16.0417 12.6588 16.2913 13.5766 16.5516L13.5897 16.5486C13.8261 17.5938 14.2933 18.5711 14.9564 19.4102C15.1147 19.195 15.2517 18.9878 15.374 18.7805C15.7267 18.1822 15.9849 17.5352 16.2586 16.6108L16.2531 16.5787C17.3721 16.3811 18.429 15.9176 19.3373 15.2263C19.3935 15.1835 19.4491 15.1399 19.504 15.0955C19.1573 14.8206 18.8403 14.6039 18.5236 14.422C17.9246 14.0779 17.2797 13.831 16.3595 13.5747L16.3554 13.5755L16.355 13.5734L16.3477 13.5714L16.3516 13.5569C16.1279 12.4577 15.6462 11.4291 14.9453 10.5545C14.9309 10.5365 14.9164 10.5185 14.9017 10.5007C14.6742 10.8022 14.4889 11.0835 14.3301 11.3647C13.9916 11.9637 13.7468 12.6088 13.4927 13.524Z" fill="#050505"/>
</svg>
