<svg width="76" height="76" viewBox="0 0 76 76" fill="none" xmlns="http://www.w3.org/2000/svg">
<path d="M47.0788 45.4755C46.2586 45.3155 45.4788 45.8769 45.3385 46.6989C43.9585 54.6773 40.7575 60.2509 37.577 60.2509C36.897 60.2509 36.2166 59.9903 35.5165 59.489C34.8566 58.9877 33.9161 59.128 33.416 59.8096C32.9159 60.4711 33.0762 61.4137 33.7362 61.9146C34.9563 62.8168 36.2366 63.2778 37.577 63.2778C42.4582 63.2778 46.5787 57.1235 48.2794 47.2199C48.4193 46.398 47.8791 45.6159 47.0588 45.4755H47.0788Z" fill="#FEFEFE"/>
<path d="M28.1156 29.9174C28.1156 29.9174 28.2957 29.9374 28.3757 29.9374C29.0958 29.9374 29.716 29.4162 29.856 28.6945C31.2363 20.7156 34.4371 15.1424 37.6176 15.1424C38.2976 15.1424 38.978 15.403 39.6781 15.9042C40.338 16.4054 41.2785 16.245 41.7786 15.5835C42.2787 14.9219 42.1184 13.9797 41.4584 13.4785C40.2383 12.5764 38.958 12.1152 37.6176 12.1152C32.7364 12.1152 28.6157 18.2698 26.9154 28.1733C26.7753 28.9952 27.3155 29.7771 28.1357 29.9174H28.1156Z" fill="#FEFEFE"/>
<path d="M51.1788 33.1478C50.5389 32.6065 49.5984 32.7068 49.0582 33.3483C48.5185 33.99 48.6182 34.9321 49.2586 35.4734C55.4597 40.6658 58.6802 46.2187 57.1003 48.9855C56.76 49.5667 56.1998 50.0277 55.4196 50.3886C54.6594 50.7295 54.3197 51.6115 54.6394 52.3734C54.8794 52.9348 55.4397 53.2756 56.0199 53.2756C56.2199 53.2756 56.4198 53.2353 56.6202 53.155C58.0002 52.5537 59.0405 51.6514 59.7005 50.5088C62.1413 46.2591 58.8806 39.6232 51.1788 33.1877V33.1478Z" fill="#FEFEFE"/>
<path d="M24.0139 42.249C24.294 42.4893 24.6341 42.5898 24.9741 42.5898C25.3942 42.5898 25.8343 42.4091 26.1344 42.0485C26.6745 41.4068 26.5745 40.4647 25.9343 39.9234C19.7331 34.731 16.5124 29.1778 18.0927 26.4113C18.4328 25.8299 18.9929 25.3688 19.773 25.008C20.5332 24.6672 20.8733 23.7851 20.5532 23.0233C20.2132 22.2615 19.3329 21.9207 18.5728 22.2414C17.1925 22.8428 16.1523 23.745 15.4921 24.8877C13.0517 29.1378 16.3123 35.7736 24.0139 42.2086V42.249Z" fill="#FEFEFE"/>
<path d="M40.4569 23.645C39.6767 23.9257 39.2768 24.7877 39.5569 25.5695C39.837 26.3514 40.6969 26.7523 41.4771 26.4717C49.0587 23.6851 55.4802 23.665 57.0606 26.4316C57.4004 27.0129 57.5207 27.7347 57.4205 28.5967C57.3207 29.4186 57.9206 30.1604 58.7408 30.2606C58.8009 30.2606 58.8606 30.2606 58.9007 30.2606C59.6609 30.2606 60.3012 29.6993 60.3809 28.9175C60.5413 27.4139 60.3012 26.0707 59.6408 24.908C57.2005 20.6579 49.8389 20.1768 40.4168 23.645H40.4569Z" fill="#FEFEFE"/>
<path d="M35.6159 49.824C35.3358 49.0424 34.4755 48.6415 33.6953 48.9222C26.1139 51.7087 19.6925 51.7285 18.1122 48.9621C17.7721 48.3809 17.6521 47.659 17.7521 46.7971C17.8521 45.9751 17.252 45.2334 16.4318 45.1329C15.6117 45.0329 14.8715 45.6343 14.7715 46.4563C14.6115 47.9599 14.8515 49.3029 15.5116 50.4657C16.8719 52.8312 19.7525 54.0343 23.6733 54.0343C26.794 54.0343 30.5548 53.2724 34.7355 51.7486C35.5157 51.4679 35.9161 50.606 35.636 49.824H35.6159Z" fill="#FEFEFE"/>
<path d="M53.6001 0.107422H21.5934C9.7309 0.107422 0.0888672 9.77029 0.0888672 21.6585V53.7343C0.0888672 65.6227 9.7309 75.2855 21.5934 75.2855H53.6001C65.4625 75.2855 75.1046 65.6227 75.1046 53.7343V21.6585C75.1046 9.77029 65.4625 0.107422 53.6001 0.107422ZM72.104 53.7343C72.104 63.9585 63.8024 72.2783 53.6001 72.2783H21.5934C11.3912 72.2783 3.08948 63.9585 3.08948 53.7343V21.6585C3.08948 11.4342 11.3912 3.11455 21.5934 3.11455H53.6001C63.8024 3.11455 72.104 11.4342 72.104 21.6585V53.7343Z" fill="#FEFEFE"/>
</svg>
